<svg xmlns="http://www.w3.org/2000/svg" width="20" height="16" viewBox="0 0 20 16"><path d="M14.288,69.4a.666.666,0,1,0-.575,1.2,1.5,1.5,0,0,1,0,2.8.666.666,0,1,0,.575,1.2,2.832,2.832,0,0,0,0-5.2ZM9.659,64a.977.977,0,0,0-.7.294L5.253,68H1a1,1,0,0,0-1,1v6a1,1,0,0,0,1,1H5.253L8.96,79.706a.978.978,0,0,0,.7.294,1,1,0,0,0,1.008-1V65A1,1,0,0,0,9.659,64ZM9.333,78.195,5.8,74.667H1.333V69.333H5.8l3.529-3.528ZM20,72a7.532,7.532,0,0,0-3.7-6.578.677.677,0,0,0-.918.245.664.664,0,0,0,.248.911,6.371,6.371,0,0,1,0,10.843.665.665,0,0,0-.248.911.677.677,0,0,0,.918.245A7.531,7.531,0,0,0,20,72Z" transform="translate(0 -64)" fill="#cbbdae"/></svg>