<svg xmlns="http://www.w3.org/2000/svg" width="25" height="20" viewBox="0 0 25 20"><path d="M17.86,70.748a.833.833,0,1,0-.719,1.5,1.879,1.879,0,0,1,0,3.5.833.833,0,1,0,.719,1.5,3.54,3.54,0,0,0,0-6.5ZM12.073,64a1.221,1.221,0,0,0-.874.367L6.566,69H1.25A1.25,1.25,0,0,0,0,70.25v7.5A1.25,1.25,0,0,0,1.25,79H6.566L11.2,83.633a1.223,1.223,0,0,0,.874.367,1.248,1.248,0,0,0,1.26-1.251v-17.5A1.248,1.248,0,0,0,12.073,64Zm-.407,17.743-4.411-4.41H1.667V70.667H7.256l4.411-4.41ZM25,74a9.415,9.415,0,0,0-4.626-8.222.846.846,0,0,0-1.148.307.83.83,0,0,0,.31,1.139,7.963,7.963,0,0,1,0,13.554.831.831,0,0,0-.31,1.139.846.846,0,0,0,1.148.307A9.414,9.414,0,0,0,25,74Z" transform="translate(0 -64)" fill="#333"/></svg>